<svg xmlns="http://www.w3.org/2000/svg" width="30" height="30" viewBox="0 0 30 30">
    <defs>
        <clipPath id="g7pcyiaj8a">
            <path data-name="사각형 7" style="fill:#222" d="M0 0h22.4v22.4H0z"/>
        </clipPath>
    </defs>
    <g data-name="그룹 26">
        <path data-name="30 Bonding box" d="M0 0h30v30H0z" style="fill:none"/>
        <g data-name="그룹 25">
            <path data-name="패스 13" d="M15.4 15.4V7h-1.867v3.267H8.867V7H7v8.4h1.867v-3.266h4.666V15.4z" style="fill:#222" transform="translate(4 4)"/>
            <g data-name="그룹 23">
                <g data-name="그룹 22" style="clip-path:url(#g7pcyiaj8a)" transform="translate(4 4)">
                    <path data-name="패스 14" d="M1.723 17.015V1.723H16.8V0H1.723A1.725 1.725 0 0 0 0 1.723v15.293h1.723z" style="fill:#222"/>
                    <path data-name="패스 15" d="M20.677 20.677H5.6V22.4h15.077a1.726 1.726 0 0 0 1.723-1.723V6.318h-1.723z" style="fill:#222"/>
                    <path data-name="패스 16" d="M21 2.8a1.4 1.4 0 1 0-1.4-1.4A1.4 1.4 0 0 0 21 2.8" style="fill:#222"/>
                    <path data-name="패스 17" d="M1.4 19.6A1.4 1.4 0 1 0 2.8 21a1.4 1.4 0 0 0-1.4-1.4" style="fill:#222"/>
                </g>
            </g>
        </g>
    </g>
</svg>
