<svg width="24" height="24" viewBox="0 0 24 24" xmlns="http://www.w3.org/2000/svg">
    <g fill="#888" fill-rule="evenodd">
        <path fill="none" d="M0 0h24v24H0z"/>
        <path d="M17.395 6.406A4.317 4.317 0 0 1 15.675 3h-2.788v7.617l-.003 4.17a2.527 2.527 0 0 1-3.824 2.164 2.517 2.517 0 0 1-1.232-2.127 2.527 2.527 0 0 1 3.323-2.434V9.565a5.34 5.34 0 0 0-.805-.06A5.346 5.346 0 0 0 6.329 11.3a5.242 5.242 0 0 0-1.319 3.155 5.224 5.224 0 0 0 1.556 4.068 5.343 5.343 0 0 0 3.78 1.55c.27-.001.54-.021.805-.061a5.335 5.335 0 0 0 2.975-1.49 5.217 5.217 0 0 0 1.566-3.713l-.013-6.23c.477.37 1.001.674 1.566.911.874.37 1.803.555 2.754.555V7.27c.004.003-.006.003-.006.003a4.302 4.302 0 0 1-2.598-.868z" fill-rule="nonzero"/>
    </g>
</svg>
