<svg xmlns="http://www.w3.org/2000/svg" width="30" height="30" viewBox="0 0 30 30">
    <defs>
        <clipPath id="z1h6wr6rna">
            <path data-name="사각형 6" style="fill:none" d="M0 0h22v22H0z"/>
        </clipPath>
    </defs>
    <g data-name="그룹 27">
        <path data-name="30 Bonding box" d="M0 0h30v30H0z" style="fill:none"/>
        <g data-name="그룹 10">
            <g data-name="그룹 9" transform="translate(4 4)" style="clip-path:url(#z1h6wr6rna)">
                <path data-name="패스 11" d="M11.574 0z" transform="translate(-.574)" style="fill:#000222"/>
                <path data-name="패스 12" d="M11 0a11 11 0 0 0 0 22 11 11 0 0 0 0-22m9.511 10.592h-4.978a15.693 15.693 0 0 0-2.624-8.931 9.543 9.543 0 0 1 7.6 8.931m-9.576 9.118a19.256 19.256 0 0 1-2.969-7.649H13.9a19.27 19.27 0 0 1-2.969 7.649m-3.09-9.118a14.632 14.632 0 0 1 3.068-9.119h.048a14.628 14.628 0 0 1 3.07 9.121zm-3.58-6.331A9.459 9.459 0 0 1 8.931 1.7a15.671 15.671 0 0 0-2.6 8.891H1.489a9.456 9.456 0 0 1 2.772-6.33m-2.729 7.8h4.9a20.578 20.578 0 0 0 3.153 8.352 9.541 9.541 0 0 1-8.057-8.352m10.731 8.375a20.615 20.615 0 0 0 3.169-8.375h5.036a9.541 9.541 0 0 1-8.2 8.375" style="fill:#000222"/>
            </g>
        </g>
    </g>
</svg>
