<svg width="24" height="24" viewBox="0 0 24 24" xmlns="http://www.w3.org/2000/svg">
    <g fill="none" fill-rule="evenodd">
        <path fill="none" d="M0 0h24v24H0z"/>
        <path d="M1 1h22v22H1z"/>
        <path d="M12 9.25a2.75 2.75 0 1 0 0 5.5 2.75 2.75 0 0 0 0-5.5zm0-1.833a4.583 4.583 0 1 1 0 9.166 4.583 4.583 0 0 1 0-9.166zm5.958-.23a1.146 1.146 0 1 1-2.291 0 1.146 1.146 0 0 1 2.291 0zM12 4.668c-2.268 0-2.638.006-3.693.053-.719.034-1.201.13-1.648.304a2.646 2.646 0 0 0-.99.645 2.65 2.65 0 0 0-.646.99c-.174.449-.27.93-.303 1.648-.048 1.012-.053 1.366-.053 3.693 0 2.268.006 2.638.053 3.693.034.718.13 1.201.303 1.647.156.4.34.686.644.99.309.309.596.493.99.645.453.175.935.272 1.65.305 1.012.048 1.366.053 3.693.053 2.268 0 2.638-.006 3.693-.053.717-.034 1.2-.13 1.647-.303.397-.155.686-.34.99-.644a2.65 2.65 0 0 0 .646-.99c.174-.452.271-.935.304-1.65.048-1.012.053-1.366.053-3.693 0-2.268-.006-2.638-.053-3.693-.034-.717-.13-1.201-.304-1.648a2.668 2.668 0 0 0-.645-.99 2.644 2.644 0 0 0-.99-.646c-.449-.174-.93-.27-1.648-.303-1.012-.048-1.366-.053-3.693-.053zm0-1.834c2.49 0 2.801.01 3.778.055.977.046 1.641.2 2.226.427a4.47 4.47 0 0 1 1.624 1.057 4.499 4.499 0 0 1 1.057 1.624c.227.584.38 1.25.427 2.225.043.978.055 1.288.055 3.779 0 2.49-.01 2.801-.055 3.778-.046.977-.2 1.641-.427 2.226a4.476 4.476 0 0 1-1.056 1.624 4.505 4.505 0 0 1-1.625 1.057c-.584.227-1.25.38-2.226.427-.977.043-1.287.055-3.778.055-2.49 0-2.801-.01-3.779-.055-.976-.046-1.64-.2-2.225-.427A4.483 4.483 0 0 1 4.37 19.63a4.495 4.495 0 0 1-1.056-1.625c-.228-.584-.38-1.25-.427-2.226-.043-.977-.055-1.287-.055-3.778 0-2.49.01-2.801.055-3.779.046-.977.2-1.64.427-2.225.229-.612.59-1.167 1.057-1.625a4.489 4.489 0 0 1 1.624-1.056c.585-.228 1.248-.38 2.225-.427C9.2 2.845 9.51 2.833 12 2.833z" fill="#888" fill-rule="nonzero"/>
    </g>
</svg>
