<svg xmlns="http://www.w3.org/2000/svg" width="140" height="28" viewBox="0 0 140 28">
    <defs>
        <clipPath id="iwesysnwea">
            <path data-name="Clip 2" d="M0 0h10.952v16.136H0z" style="fill:#fff"/>
        </clipPath>
        <clipPath id="c3prvge9yb">
            <path data-name="Clip 7" d="M0 0h5.123v5.187H0z" style="fill:#fff"/>
        </clipPath>
    </defs>
    <g data-name="Group 3">
        <path data-name="Clip 2" d="M0 0h10.952v16.136H0z" transform="translate(9.224 11.756)" style="fill:none"/>
        <g data-name="Group 3" style="clip-path:url(#iwesysnwea)" transform="translate(9.224 11.756)">
            <path data-name="Fill 1" d="M10.856 4.772a5.009 5.009 0 0 0-.36-1.218A6.01 6.01 0 0 0 8.08.758 5.419 5.419 0 0 0 2.488.8 4.887 4.887 0 0 0 .65 2.766a5.471 5.471 0 0 0-.35.865 6.079 6.079 0 0 0 .382 4.718 2.335 2.335 0 0 0 1.132.986 1.645 1.645 0 0 0 1.46-.112 1.557 1.557 0 0 0 .547-1.637A4.256 4.256 0 0 1 3.879 5.3a1.657 1.657 0 0 1 .4-.648 1.429 1.429 0 0 1 .387-.269 1.577 1.577 0 0 1 .964-.154 1.833 1.833 0 0 1 1.3 1.057 4.354 4.354 0 0 1 .35 1.694 25.326 25.326 0 0 1-1.128 7.568c-.061.25-.132.5-.208.745-.052.193-.15.437-.027.621a.488.488 0 0 0 .223.173.852.852 0 0 0 .931-.327 13.493 13.493 0 0 0 3.08-5.392 17.433 17.433 0 0 0 .59-2.25 9.927 9.927 0 0 0 .116-3.347" style="fill:#fff"/>
        </g>
    </g>
    <path data-name="Fill 4" d="M30.679.62a.639.639 0 0 0-.7-.62 3.35 3.35 0 0 0-1.041.332A42.132 42.132 0 0 1 8.222 2.287c-1.176-.17-2.364-.407-3.546-.587-.737-.119-1.467-.287-2.214-.344a2.7 2.7 0 0 0-1.941.374A2.053 2.053 0 0 0 .28 4.155 5.452 5.452 0 0 0 2.386 6.19a5.072 5.072 0 0 0 2.761.948c2.626-.17 5.24-.419 7.847-.764C17.441 5.8 22.1 5.259 26.28 3.527a16.653 16.653 0 0 0 3.882-2.173c.21-.162.518-.427.518-.733" transform="translate(0 4.238)" style="fill:#fff"/>
    <g data-name="Group 8">
        <path data-name="Clip 7" d="M0 0h5.123v5.187H0z" style="fill:none" transform="translate(12.001)"/>
        <g data-name="Group 8" style="clip-path:url(#c3prvge9yb)" transform="translate(12.001)">
            <path data-name="Fill 6" d="M0 2.623a2.561 2.561 0 1 0 5.123 0 1.569 1.569 0 0 0-.135-.613c-.221-.464-.471-.691-.443-1.248C4.574.01 3.61 0 3.091 0a3.78 3.78 0 0 0-1.677.333A2.638 2.638 0 0 0 .4 1.24 2.58 2.58 0 0 0 0 2.566z" transform="translate(0 -.001)" style="fill:#fff"/>
        </g>
    </g>
    <path data-name="Fill 9" d="M15.185 18.7h-2.792V0h2.792v5.684h2.686v1.854h-2.686V18.7zM5.2 14.359a4.25 4.25 0 0 1-3.47-1.743A7.164 7.164 0 0 1 .412 8.263 6.955 6.955 0 0 1 1.9 3.821H0V1.963h3.781V0h2.892v1.963h3.868v1.858H8.512a7.044 7.044 0 0 1 1.507 4.441 7.177 7.177 0 0 1-1.348 4.358 4.3 4.3 0 0 1-3.441 1.739zm.034-10.5a1.3 1.3 0 0 0-.928.43A5.844 5.844 0 0 0 3.2 8.263a5.574 5.574 0 0 0 1.066 3.8 1.307 1.307 0 0 0 .938.433C6.4 12.5 7.23 10.756 7.23 8.263c0-2.674-.785-4.401-2-4.401z" transform="translate(32.365 6.695)" style="fill:#fff"/>
    <path data-name="Fill 11" d="M3.7 11.464h4.69a6.413 6.413 0 0 0 3.387-.557V0h2.792v5.684h2.687v1.854h-2.691V18.7h-2.792v-5.929a8.944 8.944 0 0 1-3.445.558H2.147A2.381 2.381 0 0 1 0 10.766V.827h2.787V10.7c0 .477.314.765.909.765" transform="translate(51.062 6.695)" style="fill:#fff"/>
    <path data-name="Fill 13" d="M14.665 18.49H3.962c-1.028 0-1.9-1.174-1.9-2.564v-5.018h12.6v7.581zm-9.81-5.725v3.124c0 .485.279.742.807.742h6.217v-3.866zm11.88-3.7H0V7.21h11.466a13.093 13.093 0 0 0 .434-3.739V1.858H2.084V0h12.6v3.407a12.992 12.992 0 0 1-.513 3.8h2.562v1.857z" transform="translate(69.036 7.11)" style="fill:#fff"/>
    <path data-name="Fill 15" d="M8.366 19.832A5.728 5.728 0 0 1 4.708 18.6a4.249 4.249 0 0 1-1.568-3.332 4.328 4.328 0 0 1 .329-1.633H3.45V9.916H0V8.054h4.315a4.846 4.846 0 0 1-1.093-3.1 4.952 4.952 0 0 1 1.42-3.39A5.156 5.156 0 0 1 8.386 0a5.178 5.178 0 0 1 3.721 1.533 4.936 4.936 0 0 1 1.444 3.425 4.824 4.824 0 0 1-1.1 3.1h4.28v1.858h-3.449v3.718h-.041a4.278 4.278 0 0 1 .329 1.633 4.231 4.231 0 0 1-1.642 3.343 5.777 5.777 0 0 1-3.562 1.222zm0-7.311a2.385 2.385 0 0 0-1.674.727 2.732 2.732 0 0 0-.763 2.02 2.746 2.746 0 0 0 .753 1.991 2.365 2.365 0 0 0 1.665.714 2.549 2.549 0 0 0 2.435-2.705 2.627 2.627 0 0 0-2.416-2.747zm0-1.862a5.749 5.749 0 0 1 2.108.413V9.916H6.257v1.136a6.025 6.025 0 0 1 2.109-.393zm.02-8.8a2.036 2.036 0 0 0-1.462.647 3.475 3.475 0 0 0-.917 2.453A3.467 3.467 0 0 0 6.93 7.4a2.032 2.032 0 0 0 1.456.651c1.291 0 2.356-1.389 2.376-3.1-.019-1.615-1.152-3.092-2.376-3.092z" transform="translate(87.112 6.18)" style="fill:#fff"/>
    <path data-name="Fill 17" d="M11.078 13.124a13.566 13.566 0 0 0 .822-5.416V1.86H2.085V0h12.607v7.685a13.254 13.254 0 0 1-.931 5.439h2.97v1.856H0v-1.856z" transform="translate(105.187 7.726)" style="fill:#fff"/>
    <path data-name="Fill 19" d="M14.692 18.7H4.215a2.392 2.392 0 0 1-2.124-2.54v-4.277h2.787v1.651H11.9v-1.651h2.795V18.7zm-9.814-3.307v.58a.778.778 0 0 0 .806.868H11.9v-1.448zm4.9-2.684H6.964v-1.86H0V8.988h16.737v1.861H9.773v1.858zm5.123-4.9H4.237a2.419 2.419 0 0 1-2.146-2.518V2.979H11.9V1.863H2.091V0h12.6v3.079a1.642 1.642 0 0 1-1.365 1.758H4.878v.413c0 .429.332.706.846.706H14.9v1.856z" transform="translate(123.263 6.9)" style="fill:#fff"/>
</svg>
